<svg style="position: absolute; width: 0; height: 0; overflow: hidden;" aria-hidden="true" version="1.1" xmlns="http://www.w3.org/2000/svg" xmlns:xlink="http://www.w3.org/1999/xlink">
    <style>
        .default-palette, .palette0 {color: currentColor;
            --color0: #f89f19;
            --color1: #f84119;
            --color2: #595959;
            --color3: #fff;
        }
    </style>
    <defs>
        <symbol id="search3" viewBox="0 0 18 18" stroke-width="1.3" stroke="var(--color3, #fff)" stroke-linecap="round" stroke-linejoin="round" fill="none">
            <path d="M8.25 14.25c3.3137 0 6-2.6863 6-6s-2.6863-6-6-6-6 2.6863-6 6 2.6863 6 6 6z" />
            <path d="M15.7508 15.7498l-3.2625-3.2625" />
        </symbol>
        <symbol id="Frame46" viewBox="0 0 96 16" fill="none">
            <path fill="url(#paint0_linear_148_11809)" d="M12.3112 15.0001c-0.1053 4e-4-0.2079-0.0324-0.2935-0.0937l-4.019-2.9138-4.0191 2.9138c-0.0858 0.0622-0.1893 0.0956-0.2954 0.0952-0.106-4e-4-0.2092-0.0345-0.2946-0.0974-0.0855-0.0629-0.1486-0.1513-0.1805-0.2525-0.0318-0.1012-0.0307-0.2099 33e-4-0.3103l1.5675-4.6429-4.0625-2.7859C0.6294 6.8523 0.563 6.7655 0.5279 6.6648c-0.0351-0.1007-0.0371-0.21-57e-4-0.312 0.0314-0.1019 0.0946-0.1911 0.1803-0.2546 0.0857-0.0634 0.1895-0.0978 0.2962-0.0981l5.0119 0 1.5125-4.6547c0.0325-0.1005 0.0961-0.1881 0.1816-0.2502 0.0854-0.0621 0.1883-0.0956 0.294-0.0956 0.1056 0 0.2086 0.0335 0.294 0.0956 0.0854 0.0621 0.149 0.1497 0.1816 0.2502l1.5125 4.6563 5.0119 0c0.1068-1e-4 0.2108 0.0341 0.2968 0.0974s0.1494 0.1525 0.181 0.2545c0.0316 0.1021 0.0298 0.2115-53e-4 0.3124-0.0351 0.1008-0.1016 0.1878-0.1897 0.2482l-4.0641 2.7843 1.5666 4.6416c0.0254 0.0752 0.0325 0.1553 0.0208 0.2337-0.0117 0.0785-0.0419 0.153-0.088 0.2175-0.0462 0.0645-0.1071 0.117-0.1776 0.1533-0.0705 0.0364-0.1487 0.0554-0.228 0.0555z" />
            <path fill="url(#paint1_linear_148_11809)" d="M32.3112 15.0001c-0.1053 4e-4-0.2079-0.0324-0.2935-0.0937l-4.019-2.9138-4.0191 2.9138c-0.0858 0.0622-0.1893 0.0956-0.2954 0.0952-0.106-4e-4-0.2092-0.0345-0.2946-0.0974s-0.1486-0.1513-0.1805-0.2525c-0.0318-0.1012-0.0307-0.2099 33e-4-0.3103l1.5675-4.6429-4.0625-2.7859c-0.088-0.0603-0.1544-0.1471-0.1895-0.2478-0.0351-0.1007-0.0371-0.21-57e-4-0.312 0.0314-0.1019 0.0946-0.1911 0.1803-0.2546 0.0857-0.0634 0.1895-0.0978 0.2962-0.0981l5.0119 0 1.5125-4.6547c0.0325-0.1005 0.0961-0.1881 0.1816-0.2502 0.0854-0.0621 0.1883-0.0956 0.294-0.0956 0.1056 0 0.2086 0.0335 0.294 0.0956 0.0855 0.0621 0.149 0.1497 0.1816 0.2502l1.5125 4.6563 5.0119 0c0.1068-1e-4 0.2108 0.0341 0.2968 0.0974s0.1494 0.1525 0.181 0.2545c0.0316 0.1021 0.0298 0.2115-53e-4 0.3124-0.0351 0.1008-0.1016 0.1878-0.1897 0.2482l-4.0641 2.7843 1.5666 4.6416c0.0254 0.0752 0.0325 0.1553 0.0208 0.2337-0.0117 0.0785-0.0419 0.153-0.088 0.2175-0.0462 0.0645-0.1071 0.117-0.1776 0.1533-0.0705 0.0364-0.1487 0.0554-0.228 0.0555z" />
            <path fill="url(#paint2_linear_148_11809)" d="M52.3112 15.0001c-0.1053 4e-4-0.2079-0.0324-0.2935-0.0937l-4.019-2.9138-4.0191 2.9138c-0.0858 0.0622-0.1893 0.0956-0.2954 0.0952-0.106-4e-4-0.2092-0.0345-0.2946-0.0974s-0.1486-0.1513-0.1805-0.2525c-0.0318-0.1012-0.0307-0.2099 33e-4-0.3103l1.5675-4.6429-4.0625-2.7859c-0.088-0.0603-0.1544-0.1471-0.1895-0.2478-0.0351-0.1007-0.0371-0.21-57e-4-0.312 0.0314-0.1019 0.0946-0.1911 0.1803-0.2546 0.0857-0.0634 0.1895-0.0978 0.2962-0.0981l5.0119 0 1.5125-4.6547c0.0325-0.1005 0.0961-0.1881 0.1816-0.2502 0.0854-0.0621 0.1883-0.0956 0.294-0.0956 0.1056 0 0.2086 0.0335 0.294 0.0956 0.0855 0.0621 0.149 0.1497 0.1816 0.2502l1.5125 4.6563 5.0119 0c0.1068-1e-4 0.2108 0.0341 0.2968 0.0974s0.1494 0.1525 0.181 0.2545c0.0316 0.1021 0.0298 0.2115-53e-4 0.3124-0.0351 0.1008-0.1016 0.1878-0.1897 0.2482l-4.0641 2.7843 1.5666 4.6416c0.0254 0.0752 0.0325 0.1553 0.0208 0.2337-0.0117 0.0785-0.0419 0.153-0.088 0.2175-0.0462 0.0645-0.1071 0.117-0.1776 0.1533-0.0705 0.0364-0.1487 0.0554-0.228 0.0555z" />
            <path fill="url(#paint3_linear_148_11809)" d="M72.3112 15.0001c-0.1053 4e-4-0.2079-0.0324-0.2935-0.0937l-4.019-2.9138-4.0191 2.9138c-0.0858 0.0622-0.1893 0.0956-0.2954 0.0952-0.106-4e-4-0.2092-0.0345-0.2946-0.0974s-0.1486-0.1513-0.1805-0.2525c-0.0318-0.1012-0.0307-0.2099 33e-4-0.3103l1.5675-4.6429-4.0625-2.7859c-0.088-0.0603-0.1544-0.1471-0.1895-0.2478-0.0351-0.1007-0.0371-0.21-57e-4-0.312 0.0314-0.1019 0.0946-0.1911 0.1803-0.2546 0.0857-0.0634 0.1895-0.0978 0.2962-0.0981l5.0119 0 1.5125-4.6547c0.0325-0.1005 0.0961-0.1881 0.1816-0.2502 0.0854-0.0621 0.1883-0.0956 0.294-0.0956 0.1056 0 0.2086 0.0335 0.294 0.0956 0.0855 0.0621 0.149 0.1497 0.1816 0.2502l1.5125 4.6563 5.0119 0c0.1068-1e-4 0.2108 0.0341 0.2968 0.0974s0.1494 0.1525 0.181 0.2545c0.0316 0.1021 0.0298 0.2115-53e-4 0.3124-0.0351 0.1008-0.1016 0.1878-0.1897 0.2482l-4.0641 2.7843 1.5666 4.6416c0.0254 0.0752 0.0325 0.1553 0.0208 0.2337-0.0117 0.0785-0.0419 0.153-0.088 0.2175-0.0462 0.0645-0.1071 0.117-0.1776 0.1533-0.0705 0.0364-0.1487 0.0554-0.228 0.0555z" />
            <path stroke="url(#paint4_linear_148_11809)" stroke-linejoin="round" d="M95 6.5h-5.375L88 1.5l-1.625 5H81l4.375 3-1.6875 5L88 11.375 92.3125 14.5l-1.6875-5z" />
            <path fill="url(#paint5_linear_148_11809)" d="M88 1.5v9.875L83.6875 14.5l1.6875-5L81 6.5h5.375z" />
            <defs>
                <linearGradient id="paint0_linear_148_11809" gradientUnits="userSpaceOnUse" x1="2.33203" x2="12.332" y1="2.00012" y2="15.3335" />
                <linearGradient id="paint1_linear_148_11809" gradientUnits="userSpaceOnUse" x1="22.332" x2="32.332" y1="2.00012" y2="15.3335" />
                <linearGradient id="paint2_linear_148_11809" gradientUnits="userSpaceOnUse" x1="42.332" x2="52.332" y1="2.00012" y2="15.3335" />
                <linearGradient id="paint3_linear_148_11809" gradientUnits="userSpaceOnUse" x1="62.332" x2="72.332" y1="2.00012" y2="15.3335" />
                <linearGradient id="paint4_linear_148_11809" gradientUnits="userSpaceOnUse" x1="82.71" x2="91.9805" y1="2.42889" y2="14.8555" />
                <linearGradient id="paint5_linear_148_11809" gradientUnits="userSpaceOnUse" x1="81.855" x2="90.8005" y1="2.42889" y2="8.42443" />
            </defs>
        </symbol>
        <symbol id="Frame79" viewBox="0 0 96 16" fill="none">
            <path fill="url(#paint0_linear_148_11798)" d="M12.3112 15c-0.1053 4e-4-0.2079-0.0324-0.2935-0.0938l-4.019-2.9137-4.0191 2.9137c-0.0858 0.0623-0.1893 0.0957-0.2954 0.0953-0.106-4e-4-0.2092-0.0345-0.2946-0.0974-0.0855-0.0629-0.1486-0.1513-0.1805-0.2525-0.0318-0.1012-0.0307-0.2099 33e-4-0.3104l1.5675-4.6428-4.0625-2.7859C0.6294 6.8522 0.563 6.7654 0.5279 6.6647 0.4928 6.564 0.4908 6.4547 0.5222 6.3527 0.5536 6.2508 0.6168 6.1616 0.7025 6.0981 0.7882 6.0347 0.892 6.0003 0.9987 6l5.0119 0 1.5125-4.6547c0.0325-0.1005 0.0961-0.1881 0.1816-0.2502 0.0854-0.0621 0.1883-0.0956 0.294-0.0956 0.1056 0 0.2086 0.0335 0.294 0.0956 0.0854 0.0621 0.149 0.1497 0.1816 0.2502l1.5125 4.6563 5.0119 0c0.1068-1e-4 0.2108 0.034 0.2968 0.0974 0.086 0.0633 0.1494 0.1525 0.181 0.2545 0.0316 0.102 0.0298 0.2115-53e-4 0.3124-0.0351 0.1008-0.1016 0.1878-0.1897 0.2481l-4.0641 2.7844 1.5666 4.6416c0.0254 0.0751 0.0325 0.1552 0.0208 0.2337-0.0117 0.0784-0.0419 0.153-0.088 0.2175-0.0462 0.0645-0.1071 0.117-0.1776 0.1533S12.3905 14.9998 12.3112 15z" />
            <path fill="url(#paint1_linear_148_11798)" d="M32.3112 15c-0.1053 4e-4-0.2079-0.0324-0.2935-0.0938l-4.019-2.9137-4.0191 2.9137c-0.0858 0.0623-0.1893 0.0957-0.2954 0.0953-0.106-4e-4-0.2092-0.0345-0.2946-0.0974s-0.1486-0.1513-0.1805-0.2525c-0.0318-0.1012-0.0307-0.2099 33e-4-0.3104l1.5675-4.6428-4.0625-2.7859c-0.088-0.0603-0.1544-0.1471-0.1895-0.2478-0.0351-0.1007-0.0371-0.21-57e-4-0.312 0.0314-0.1019 0.0946-0.1911 0.1803-0.2546C20.7882 6.0347 20.892 6.0003 20.9987 6l5.0119 0 1.5125-4.6547c0.0325-0.1005 0.0961-0.1881 0.1816-0.2502 0.0854-0.0621 0.1883-0.0956 0.294-0.0956 0.1056 0 0.2086 0.0335 0.294 0.0956 0.0855 0.0621 0.149 0.1497 0.1816 0.2502l1.5125 4.6563 5.0119 0c0.1068-1e-4 0.2108 0.034 0.2968 0.0974 0.086 0.0633 0.1494 0.1525 0.181 0.2545 0.0316 0.102 0.0298 0.2115-53e-4 0.3124-0.0351 0.1008-0.1016 0.1878-0.1897 0.2481l-4.0641 2.7844 1.5666 4.6416c0.0254 0.0751 0.0325 0.1552 0.0208 0.2337-0.0117 0.0784-0.0419 0.153-0.088 0.2175-0.0462 0.0645-0.1071 0.117-0.1776 0.1533S32.3905 14.9998 32.3112 15z" />
            <path fill="url(#paint2_linear_148_11798)" d="M52.3112 15c-0.1053 4e-4-0.2079-0.0324-0.2935-0.0938l-4.019-2.9137-4.0191 2.9137c-0.0858 0.0623-0.1893 0.0957-0.2954 0.0953-0.106-4e-4-0.2092-0.0345-0.2946-0.0974s-0.1486-0.1513-0.1805-0.2525c-0.0318-0.1012-0.0307-0.2099 33e-4-0.3104l1.5675-4.6428-4.0625-2.7859c-0.088-0.0603-0.1544-0.1471-0.1895-0.2478-0.0351-0.1007-0.0371-0.21-57e-4-0.312 0.0314-0.1019 0.0946-0.1911 0.1803-0.2546C40.7882 6.0347 40.892 6.0003 40.9987 6l5.0119 0 1.5125-4.6547c0.0325-0.1005 0.0961-0.1881 0.1816-0.2502 0.0854-0.0621 0.1883-0.0956 0.294-0.0956 0.1056 0 0.2086 0.0335 0.294 0.0956 0.0855 0.0621 0.149 0.1497 0.1816 0.2502l1.5125 4.6563 5.0119 0c0.1068-1e-4 0.2108 0.034 0.2968 0.0974 0.086 0.0633 0.1494 0.1525 0.181 0.2545 0.0316 0.102 0.0298 0.2115-53e-4 0.3124-0.0351 0.1008-0.1016 0.1878-0.1897 0.2481l-4.0641 2.7844 1.5666 4.6416c0.0254 0.0751 0.0325 0.1552 0.0208 0.2337-0.0117 0.0784-0.0419 0.153-0.088 0.2175-0.0462 0.0645-0.1071 0.117-0.1776 0.1533S52.3905 14.9998 52.3112 15z" />
            <path fill="url(#paint3_linear_148_11798)" d="M72.3112 15c-0.1053 4e-4-0.2079-0.0324-0.2935-0.0938l-4.019-2.9137-4.0191 2.9137c-0.0858 0.0623-0.1893 0.0957-0.2954 0.0953-0.106-4e-4-0.2092-0.0345-0.2946-0.0974s-0.1486-0.1513-0.1805-0.2525c-0.0318-0.1012-0.0307-0.2099 33e-4-0.3104l1.5675-4.6428-4.0625-2.7859c-0.088-0.0603-0.1544-0.1471-0.1895-0.2478-0.0351-0.1007-0.0371-0.21-57e-4-0.312 0.0314-0.1019 0.0946-0.1911 0.1803-0.2546C60.7882 6.0347 60.892 6.0003 60.9987 6l5.0119 0 1.5125-4.6547c0.0325-0.1005 0.0961-0.1881 0.1816-0.2502 0.0854-0.0621 0.1883-0.0956 0.294-0.0956 0.1056 0 0.2086 0.0335 0.294 0.0956 0.0855 0.0621 0.149 0.1497 0.1816 0.2502l1.5125 4.6563 5.0119 0c0.1068-1e-4 0.2108 0.034 0.2968 0.0974 0.086 0.0633 0.1494 0.1525 0.181 0.2545 0.0316 0.102 0.0298 0.2115-53e-4 0.3124-0.0351 0.1008-0.1016 0.1878-0.1897 0.2481l-4.0641 2.7844 1.5666 4.6416c0.0254 0.0751 0.0325 0.1552 0.0208 0.2337-0.0117 0.0784-0.0419 0.153-0.088 0.2175-0.0462 0.0645-0.1071 0.117-0.1776 0.1533S72.3905 14.9998 72.3112 15z" />
            <path fill="url(#paint4_linear_148_11798)" d="M92.3112 15c-0.1053 4e-4-0.2079-0.0324-0.2935-0.0938l-4.019-2.9137-4.0191 2.9137c-0.0858 0.0623-0.1893 0.0957-0.2954 0.0953-0.106-4e-4-0.2092-0.0345-0.2946-0.0974s-0.1486-0.1513-0.1805-0.2525c-0.0318-0.1012-0.0307-0.2099 33e-4-0.3104l1.5675-4.6428-4.0625-2.7859c-0.088-0.0603-0.1544-0.1471-0.1895-0.2478-0.0351-0.1007-0.0371-0.21-57e-4-0.312 0.0314-0.1019 0.0946-0.1911 0.1803-0.2546C80.7882 6.0347 80.892 6.0003 80.9987 6l5.0119 0 1.5125-4.6547c0.0325-0.1005 0.0961-0.1881 0.1816-0.2502 0.0854-0.0621 0.1883-0.0956 0.294-0.0956 0.1056 0 0.2086 0.0335 0.294 0.0956 0.0855 0.0621 0.149 0.1497 0.1816 0.2502l1.5125 4.6563 5.0119 0c0.1068-1e-4 0.2108 0.034 0.2968 0.0974 0.086 0.0633 0.1494 0.1525 0.181 0.2545 0.0316 0.102 0.0298 0.2115-53e-4 0.3124-0.0351 0.1008-0.1016 0.1878-0.1897 0.2481l-4.0641 2.7844 1.5666 4.6416c0.0254 0.0751 0.0325 0.1552 0.0208 0.2337-0.0117 0.0784-0.0419 0.153-0.088 0.2175-0.0462 0.0645-0.1071 0.117-0.1776 0.1533S92.3905 14.9998 92.3112 15z" />
            <defs>
                <linearGradient id="paint0_linear_148_11798" gradientUnits="userSpaceOnUse" x1="2.33203" x2="12.332" y1="2" y2="15.3333" />
                <linearGradient id="paint1_linear_148_11798" gradientUnits="userSpaceOnUse" x1="22.332" x2="32.332" y1="2" y2="15.3333" />
                <linearGradient id="paint2_linear_148_11798" gradientUnits="userSpaceOnUse" x1="42.332" x2="52.332" y1="2" y2="15.3333" />
                <linearGradient id="paint3_linear_148_11798" gradientUnits="userSpaceOnUse" x1="62.332" x2="72.332" y1="2" y2="15.3333" />
                <linearGradient id="paint4_linear_148_11798" gradientUnits="userSpaceOnUse" x1="82.332" x2="92.332" y1="2" y2="15.3333" />
            </defs>
        </symbol>
        <symbol id="Frame53" viewBox="0 0 76 12" fill="none">
            <path fill="url(#paint0_linear_148_11919)" d="M9.2334 11.25c-0.0789 3e-4-0.156-0.0243-0.2201-0.0703L5.999 8.9944 2.9847 11.1797c-0.0644 0.0467-0.142 0.0717-0.2215 0.0714-0.0796-3e-4-0.157-0.0259-0.221-0.073-0.0641-0.0472-0.1115-0.1135-0.1354-0.1894-0.0238-0.0759-0.023-0.1574 25e-4-0.2328L3.585 7.2738 0.5381 5.1844C0.4721 5.1392 0.4223 5.074 0.3959 4.9985 0.3696 4.923 0.3681 4.841 0.3916 4.7645c0.0236-0.0764 0.071-0.1433 0.1353-0.1909C0.5912 4.526 0.669 4.5002 0.749 4.5l3.7589 0 1.1344-3.491c0.0244-0.0754 0.0721-0.1411 0.1362-0.1877 0.0641-0.0466 0.1413-0.0717 0.2205-0.0717 0.0792 0 0.1564 0.0251 0.2205 0.0717 0.0641 0.0466 0.1118 0.1123 0.1362 0.1877l1.1344 3.4922 3.7589 0c0.0801-1e-4 0.1581 0.0255 0.2226 0.073 0.0645 0.0475 0.1121 0.1144 0.1358 0.1909 0.0237 0.0765 0.0223 0.1586-4e-3 0.2343-0.0263 0.0756-0.0762 0.1409-0.1423 0.1861l-3.048 2.0883 1.1749 3.4812c0.019 0.0564 0.0244 0.1164 0.0156 0.1753-88e-4 0.0588-0.0314 0.1147-0.066 0.1631-0.0347 0.0483-0.0803 0.0878-0.1332 0.115-0.0529 0.0272-0.1115 0.0415-0.171 0.0416z" />
            <path fill="url(#paint1_linear_148_11919)" d="M25.2334 11.25c-0.0789 3e-4-0.156-0.0243-0.2201-0.0703L21.999 8.9944l-3.0143 2.1853c-0.0644 0.0467-0.142 0.0717-0.2215 0.0714-0.0796-3e-4-0.157-0.0259-0.221-0.073-0.0641-0.0472-0.1115-0.1135-0.1354-0.1894-0.0238-0.0759-0.023-0.1574 25e-4-0.2328l1.1757-3.4821-3.0469-2.0894c-0.066-0.0452-0.1158-0.1104-0.1422-0.1859-0.0263-0.0755-0.0278-0.1575-43e-4-0.234 0.0236-0.0764 0.071-0.1433 0.1353-0.1909C16.5912 4.526 16.669 4.5002 16.749 4.5l3.7589 0 1.1344-3.491c0.0244-0.0754 0.0721-0.1411 0.1362-0.1877 0.0641-0.0466 0.1413-0.0717 0.2205-0.0717 0.0792 0 0.1564 0.0251 0.2205 0.0717 0.0641 0.0466 0.1118 0.1123 0.1362 0.1877l1.1344 3.4922 3.7589 0c0.0801-1e-4 0.1581 0.0255 0.2226 0.073 0.0645 0.0475 0.1121 0.1144 0.1358 0.1909 0.0237 0.0765 0.0223 0.1586-4e-3 0.2343-0.0263 0.0756-0.0762 0.1409-0.1423 0.1861l-3.048 2.0883 1.1749 3.4812c0.019 0.0564 0.0244 0.1164 0.0156 0.1753-87e-4 0.0588-0.0314 0.1147-0.066 0.1631-0.0347 0.0483-0.0803 0.0878-0.1332 0.115s-0.1115 0.0415-0.171 0.0416z" />
            <path fill="url(#paint2_linear_148_11919)" d="M41.2334 11.25c-0.0789 3e-4-0.156-0.0243-0.2201-0.0703L37.999 8.9944l-3.0143 2.1853c-0.0644 0.0467-0.142 0.0717-0.2215 0.0714-0.0796-3e-4-0.157-0.0259-0.221-0.073-0.0641-0.0472-0.1115-0.1135-0.1354-0.1894-0.0238-0.0759-0.023-0.1574 25e-4-0.2328l1.1757-3.4821-3.0469-2.0894c-0.066-0.0452-0.1158-0.1104-0.1422-0.1859-0.0263-0.0755-0.0278-0.1575-43e-4-0.234 0.0236-0.0764 0.071-0.1433 0.1353-0.1909C32.5912 4.526 32.669 4.5002 32.749 4.5l3.7589 0 1.1344-3.491c0.0244-0.0754 0.0721-0.1411 0.1362-0.1877 0.0641-0.0466 0.1413-0.0717 0.2205-0.0717 0.0792 0 0.1564 0.0251 0.2205 0.0717 0.0641 0.0466 0.1118 0.1123 0.1362 0.1877l1.1344 3.4922 3.7589 0c0.0801-1e-4 0.1581 0.0255 0.2226 0.073 0.0645 0.0475 0.1121 0.1144 0.1358 0.1909 0.0237 0.0765 0.0223 0.1586-4e-3 0.2343-0.0263 0.0756-0.0762 0.1409-0.1423 0.1861l-3.048 2.0883 1.1749 3.4812c0.019 0.0564 0.0244 0.1164 0.0156 0.1753-87e-4 0.0588-0.0314 0.1147-0.066 0.1631-0.0347 0.0483-0.0803 0.0878-0.1332 0.115s-0.1115 0.0415-0.171 0.0416z" />
            <path fill="url(#paint3_linear_148_11919)" d="M57.2334 11.25c-0.0789 3e-4-0.156-0.0243-0.2201-0.0703L53.999 8.9944l-3.0143 2.1853c-0.0644 0.0467-0.142 0.0717-0.2215 0.0714-0.0796-3e-4-0.157-0.0259-0.221-0.073-0.0641-0.0472-0.1115-0.1135-0.1354-0.1894-0.0238-0.0759-0.023-0.1574 25e-4-0.2328l1.1757-3.4821-3.0469-2.0894c-0.066-0.0452-0.1158-0.1104-0.1422-0.1859-0.0263-0.0755-0.0278-0.1575-43e-4-0.234 0.0236-0.0764 0.071-0.1433 0.1353-0.1909C48.5912 4.526 48.669 4.5002 48.749 4.5l3.7589 0 1.1344-3.491c0.0244-0.0754 0.0721-0.1411 0.1362-0.1877 0.0641-0.0466 0.1413-0.0717 0.2205-0.0717 0.0792 0 0.1564 0.0251 0.2205 0.0717 0.0641 0.0466 0.1118 0.1123 0.1362 0.1877l1.1344 3.4922 3.7589 0c0.0801-1e-4 0.1581 0.0255 0.2226 0.073 0.0645 0.0475 0.1121 0.1144 0.1358 0.1909 0.0237 0.0765 0.0223 0.1586-4e-3 0.2343-0.0263 0.0756-0.0762 0.1409-0.1423 0.1861l-3.048 2.0883 1.1749 3.4812c0.019 0.0564 0.0244 0.1164 0.0156 0.1753-87e-4 0.0588-0.0314 0.1147-0.066 0.1631-0.0347 0.0483-0.0803 0.0878-0.1332 0.115s-0.1115 0.0415-0.171 0.0416z" />
            <path fill="url(#paint4_linear_148_11919)" d="M73.2334 11.25c-0.0789 3e-4-0.156-0.0243-0.2201-0.0703L69.999 8.9944l-3.0143 2.1853c-0.0644 0.0467-0.142 0.0717-0.2215 0.0714-0.0796-3e-4-0.157-0.0259-0.221-0.073-0.0641-0.0472-0.1115-0.1135-0.1354-0.1894-0.0238-0.0759-0.023-0.1574 25e-4-0.2328l1.1757-3.4821-3.0469-2.0894c-0.066-0.0452-0.1158-0.1104-0.1422-0.1859-0.0263-0.0755-0.0278-0.1575-43e-4-0.234 0.0236-0.0764 0.071-0.1433 0.1353-0.1909C64.5912 4.526 64.669 4.5002 64.749 4.5l3.7589 0 1.1344-3.491c0.0244-0.0754 0.0721-0.1411 0.1362-0.1877 0.0641-0.0466 0.1413-0.0717 0.2205-0.0717 0.0792 0 0.1564 0.0251 0.2205 0.0717 0.0641 0.0466 0.1118 0.1123 0.1362 0.1877l1.1344 3.4922 3.7589 0c0.0801-1e-4 0.1581 0.0255 0.2226 0.073 0.0645 0.0475 0.1121 0.1144 0.1358 0.1909 0.0237 0.0765 0.0223 0.1586-4e-3 0.2343-0.0263 0.0756-0.0762 0.1409-0.1423 0.1861l-3.048 2.0883 1.1749 3.4812c0.019 0.0564 0.0244 0.1164 0.0156 0.1753-87e-4 0.0588-0.0314 0.1147-0.066 0.1631-0.0347 0.0483-0.0803 0.0878-0.1332 0.115s-0.1115 0.0415-0.171 0.0416z" />
            <defs>
                <linearGradient id="paint0_linear_148_11919" gradientUnits="userSpaceOnUse" x1="1.74902" x2="9.24902" y1="1.5" y2="11.5" />
                <linearGradient id="paint1_linear_148_11919" gradientUnits="userSpaceOnUse" x1="17.749" x2="25.249" y1="1.5" y2="11.5" />
                <linearGradient id="paint2_linear_148_11919" gradientUnits="userSpaceOnUse" x1="33.749" x2="41.249" y1="1.5" y2="11.5" />
                <linearGradient id="paint3_linear_148_11919" gradientUnits="userSpaceOnUse" x1="49.749" x2="57.249" y1="1.5" y2="11.5" />
                <linearGradient id="paint4_linear_148_11919" gradientUnits="userSpaceOnUse" x1="65.749" x2="73.249" y1="1.5" y2="11.5" />
            </defs>
        </symbol>
        <symbol id="Frame551" viewBox="0 0 76 12" fill="none">
            <path fill="url(#paint0_linear_148_11919)" d="M9.2334 11.25c-0.0789 3e-4-0.156-0.0243-0.2201-0.0703L5.999 8.9944 2.9847 11.1797c-0.0644 0.0467-0.142 0.0717-0.2215 0.0714-0.0796-3e-4-0.157-0.0259-0.221-0.073-0.0641-0.0472-0.1115-0.1135-0.1354-0.1894-0.0238-0.0759-0.023-0.1574 25e-4-0.2328L3.585 7.2738 0.5381 5.1844C0.4721 5.1392 0.4223 5.074 0.3959 4.9985 0.3696 4.923 0.3681 4.841 0.3916 4.7645c0.0236-0.0764 0.071-0.1433 0.1353-0.1909C0.5912 4.526 0.669 4.5002 0.749 4.5l3.7589 0 1.1344-3.491c0.0244-0.0754 0.0721-0.1411 0.1362-0.1877 0.0641-0.0466 0.1413-0.0717 0.2205-0.0717 0.0792 0 0.1564 0.0251 0.2205 0.0717 0.0641 0.0466 0.1118 0.1123 0.1362 0.1877l1.1344 3.4922 3.7589 0c0.0801-1e-4 0.1581 0.0255 0.2226 0.073 0.0645 0.0475 0.1121 0.1144 0.1358 0.1909 0.0237 0.0765 0.0223 0.1586-4e-3 0.2343-0.0263 0.0756-0.0762 0.1409-0.1423 0.1861l-3.048 2.0883 1.1749 3.4812c0.019 0.0564 0.0244 0.1164 0.0156 0.1753-88e-4 0.0588-0.0314 0.1147-0.066 0.1631-0.0347 0.0483-0.0803 0.0878-0.1332 0.115-0.0529 0.0272-0.1115 0.0415-0.171 0.0416z" />
            <path fill="url(#paint1_linear_148_11919)" d="M25.2334 11.25c-0.0789 3e-4-0.156-0.0243-0.2201-0.0703L21.999 8.9944l-3.0143 2.1853c-0.0644 0.0467-0.142 0.0717-0.2215 0.0714-0.0796-3e-4-0.157-0.0259-0.221-0.073-0.0641-0.0472-0.1115-0.1135-0.1354-0.1894-0.0238-0.0759-0.023-0.1574 25e-4-0.2328l1.1757-3.4821-3.0469-2.0894c-0.066-0.0452-0.1158-0.1104-0.1422-0.1859-0.0263-0.0755-0.0278-0.1575-43e-4-0.234 0.0236-0.0764 0.071-0.1433 0.1353-0.1909C16.5912 4.526 16.669 4.5002 16.749 4.5l3.7589 0 1.1344-3.491c0.0244-0.0754 0.0721-0.1411 0.1362-0.1877 0.0641-0.0466 0.1413-0.0717 0.2205-0.0717 0.0792 0 0.1564 0.0251 0.2205 0.0717 0.0641 0.0466 0.1118 0.1123 0.1362 0.1877l1.1344 3.4922 3.7589 0c0.0801-1e-4 0.1581 0.0255 0.2226 0.073 0.0645 0.0475 0.1121 0.1144 0.1358 0.1909 0.0237 0.0765 0.0223 0.1586-4e-3 0.2343-0.0263 0.0756-0.0762 0.1409-0.1423 0.1861l-3.048 2.0883 1.1749 3.4812c0.019 0.0564 0.0244 0.1164 0.0156 0.1753-87e-4 0.0588-0.0314 0.1147-0.066 0.1631-0.0347 0.0483-0.0803 0.0878-0.1332 0.115s-0.1115 0.0415-0.171 0.0416z" />
            <path fill="url(#paint2_linear_148_11919)" d="M41.2334 11.25c-0.0789 3e-4-0.156-0.0243-0.2201-0.0703L37.999 8.9944l-3.0143 2.1853c-0.0644 0.0467-0.142 0.0717-0.2215 0.0714-0.0796-3e-4-0.157-0.0259-0.221-0.073-0.0641-0.0472-0.1115-0.1135-0.1354-0.1894-0.0238-0.0759-0.023-0.1574 25e-4-0.2328l1.1757-3.4821-3.0469-2.0894c-0.066-0.0452-0.1158-0.1104-0.1422-0.1859-0.0263-0.0755-0.0278-0.1575-43e-4-0.234 0.0236-0.0764 0.071-0.1433 0.1353-0.1909C32.5912 4.526 32.669 4.5002 32.749 4.5l3.7589 0 1.1344-3.491c0.0244-0.0754 0.0721-0.1411 0.1362-0.1877 0.0641-0.0466 0.1413-0.0717 0.2205-0.0717 0.0792 0 0.1564 0.0251 0.2205 0.0717 0.0641 0.0466 0.1118 0.1123 0.1362 0.1877l1.1344 3.4922 3.7589 0c0.0801-1e-4 0.1581 0.0255 0.2226 0.073 0.0645 0.0475 0.1121 0.1144 0.1358 0.1909 0.0237 0.0765 0.0223 0.1586-4e-3 0.2343-0.0263 0.0756-0.0762 0.1409-0.1423 0.1861l-3.048 2.0883 1.1749 3.4812c0.019 0.0564 0.0244 0.1164 0.0156 0.1753-87e-4 0.0588-0.0314 0.1147-0.066 0.1631-0.0347 0.0483-0.0803 0.0878-0.1332 0.115s-0.1115 0.0415-0.171 0.0416z" />
            <g clip-path="url(#clip0_148_11895)">
                <path stroke="url(#paint3_linear_148_11895)" stroke-linejoin="round" d="M59.25 4.875h-4.0312L54 1.125l-1.2188 3.75H48.75l3.2812 2.25-1.2656 3.75L54 8.5313l3.2344 2.3437-1.2656-3.75z" />
                <path fill="url(#paint4_linear_148_11895)" d="M54 1.125v7.4063l-3.2344 2.3437 1.2656-3.75-3.2812-2.25h4.0312z" />
            </g>
            <path stroke="url(#paint5_linear_148_11895)" stroke-linejoin="round" d="M75.25 4.875h-4.0312L70 1.125l-1.2188 3.75H64.75l3.2812 2.25-1.2656 3.75L70 8.5313l3.2344 2.3437-1.2656-3.75z" />
            <defs>
                <linearGradient id="paint3_linear_148_11895" gradientUnits="userSpaceOnUse" x1="50.0325" x2="56.9853" y1="1.82167" y2="11.1416" />
                <linearGradient id="paint4_linear_148_11895" gradientUnits="userSpaceOnUse" x1="49.3913" x2="56.1004" y1="1.82167" y2="6.31832" />
                <linearGradient id="paint5_linear_148_11895" gradientUnits="userSpaceOnUse" x1="66.0325" x2="72.9853" y1="1.82167" y2="11.1416" />
                <clipPath id="clip0_148_11895">
                    <rect fill="#fff" transform="translate(48)" width="12" height="12" />
                </clipPath>
                <clipPath id="clip1_148_11895">
                    <rect fill="#fff" transform="translate(64)" width="12" height="12" />
                </clipPath>
            </defs>
        </symbol>
        <symbol id="Frame55" viewBox="0 0 76 12" fill="none">
            <path fill="url(#paint0_linear_148_11919)" d="M9.2334 11.25c-0.0789 3e-4-0.156-0.0243-0.2201-0.0703L5.999 8.9944 2.9847 11.1797c-0.0644 0.0467-0.142 0.0717-0.2215 0.0714-0.0796-3e-4-0.157-0.0259-0.221-0.073-0.0641-0.0472-0.1115-0.1135-0.1354-0.1894-0.0238-0.0759-0.023-0.1574 25e-4-0.2328L3.585 7.2738 0.5381 5.1844C0.4721 5.1392 0.4223 5.074 0.3959 4.9985 0.3696 4.923 0.3681 4.841 0.3916 4.7645c0.0236-0.0764 0.071-0.1433 0.1353-0.1909C0.5912 4.526 0.669 4.5002 0.749 4.5l3.7589 0 1.1344-3.491c0.0244-0.0754 0.0721-0.1411 0.1362-0.1877 0.0641-0.0466 0.1413-0.0717 0.2205-0.0717 0.0792 0 0.1564 0.0251 0.2205 0.0717 0.0641 0.0466 0.1118 0.1123 0.1362 0.1877l1.1344 3.4922 3.7589 0c0.0801-1e-4 0.1581 0.0255 0.2226 0.073 0.0645 0.0475 0.1121 0.1144 0.1358 0.1909 0.0237 0.0765 0.0223 0.1586-4e-3 0.2343-0.0263 0.0756-0.0762 0.1409-0.1423 0.1861l-3.048 2.0883 1.1749 3.4812c0.019 0.0564 0.0244 0.1164 0.0156 0.1753-88e-4 0.0588-0.0314 0.1147-0.066 0.1631-0.0347 0.0483-0.0803 0.0878-0.1332 0.115-0.0529 0.0272-0.1115 0.0415-0.171 0.0416z" />
            <path fill="url(#paint1_linear_148_11919)" d="M25.2334 11.25c-0.0789 3e-4-0.156-0.0243-0.2201-0.0703L21.999 8.9944l-3.0143 2.1853c-0.0644 0.0467-0.142 0.0717-0.2215 0.0714-0.0796-3e-4-0.157-0.0259-0.221-0.073-0.0641-0.0472-0.1115-0.1135-0.1354-0.1894-0.0238-0.0759-0.023-0.1574 25e-4-0.2328l1.1757-3.4821-3.0469-2.0894c-0.066-0.0452-0.1158-0.1104-0.1422-0.1859-0.0263-0.0755-0.0278-0.1575-43e-4-0.234 0.0236-0.0764 0.071-0.1433 0.1353-0.1909C16.5912 4.526 16.669 4.5002 16.749 4.5l3.7589 0 1.1344-3.491c0.0244-0.0754 0.0721-0.1411 0.1362-0.1877 0.0641-0.0466 0.1413-0.0717 0.2205-0.0717 0.0792 0 0.1564 0.0251 0.2205 0.0717 0.0641 0.0466 0.1118 0.1123 0.1362 0.1877l1.1344 3.4922 3.7589 0c0.0801-1e-4 0.1581 0.0255 0.2226 0.073 0.0645 0.0475 0.1121 0.1144 0.1358 0.1909 0.0237 0.0765 0.0223 0.1586-4e-3 0.2343-0.0263 0.0756-0.0762 0.1409-0.1423 0.1861l-3.048 2.0883 1.1749 3.4812c0.019 0.0564 0.0244 0.1164 0.0156 0.1753-87e-4 0.0588-0.0314 0.1147-0.066 0.1631-0.0347 0.0483-0.0803 0.0878-0.1332 0.115s-0.1115 0.0415-0.171 0.0416z" />
            <path fill="url(#paint2_linear_148_11919)" d="M41.2334 11.25c-0.0789 3e-4-0.156-0.0243-0.2201-0.0703L37.999 8.9944l-3.0143 2.1853c-0.0644 0.0467-0.142 0.0717-0.2215 0.0714-0.0796-3e-4-0.157-0.0259-0.221-0.073-0.0641-0.0472-0.1115-0.1135-0.1354-0.1894-0.0238-0.0759-0.023-0.1574 25e-4-0.2328l1.1757-3.4821-3.0469-2.0894c-0.066-0.0452-0.1158-0.1104-0.1422-0.1859-0.0263-0.0755-0.0278-0.1575-43e-4-0.234 0.0236-0.0764 0.071-0.1433 0.1353-0.1909C32.5912 4.526 32.669 4.5002 32.749 4.5l3.7589 0 1.1344-3.491c0.0244-0.0754 0.0721-0.1411 0.1362-0.1877 0.0641-0.0466 0.1413-0.0717 0.2205-0.0717 0.0792 0 0.1564 0.0251 0.2205 0.0717 0.0641 0.0466 0.1118 0.1123 0.1362 0.1877l1.1344 3.4922 3.7589 0c0.0801-1e-4 0.1581 0.0255 0.2226 0.073 0.0645 0.0475 0.1121 0.1144 0.1358 0.1909 0.0237 0.0765 0.0223 0.1586-4e-3 0.2343-0.0263 0.0756-0.0762 0.1409-0.1423 0.1861l-3.048 2.0883 1.1749 3.4812c0.019 0.0564 0.0244 0.1164 0.0156 0.1753-87e-4 0.0588-0.0314 0.1147-0.066 0.1631-0.0347 0.0483-0.0803 0.0878-0.1332 0.115s-0.1115 0.0415-0.171 0.0416z" />
            <path fill="url(#paint3_linear_148_11919)" d="M57.2334 11.25c-0.0789 3e-4-0.156-0.0243-0.2201-0.0703L53.999 8.9944l-3.0143 2.1853c-0.0644 0.0467-0.142 0.0717-0.2215 0.0714-0.0796-3e-4-0.157-0.0259-0.221-0.073-0.0641-0.0472-0.1115-0.1135-0.1354-0.1894-0.0238-0.0759-0.023-0.1574 25e-4-0.2328l1.1757-3.4821-3.0469-2.0894c-0.066-0.0452-0.1158-0.1104-0.1422-0.1859-0.0263-0.0755-0.0278-0.1575-43e-4-0.234 0.0236-0.0764 0.071-0.1433 0.1353-0.1909C48.5912 4.526 48.669 4.5002 48.749 4.5l3.7589 0 1.1344-3.491c0.0244-0.0754 0.0721-0.1411 0.1362-0.1877 0.0641-0.0466 0.1413-0.0717 0.2205-0.0717 0.0792 0 0.1564 0.0251 0.2205 0.0717 0.0641 0.0466 0.1118 0.1123 0.1362 0.1877l1.1344 3.4922 3.7589 0c0.0801-1e-4 0.1581 0.0255 0.2226 0.073 0.0645 0.0475 0.1121 0.1144 0.1358 0.1909 0.0237 0.0765 0.0223 0.1586-4e-3 0.2343-0.0263 0.0756-0.0762 0.1409-0.1423 0.1861l-3.048 2.0883 1.1749 3.4812c0.019 0.0564 0.0244 0.1164 0.0156 0.1753-87e-4 0.0588-0.0314 0.1147-0.066 0.1631-0.0347 0.0483-0.0803 0.0878-0.1332 0.115s-0.1115 0.0415-0.171 0.0416z" />
            <g clip-path="url(#clip1_148_11895)">
                <path stroke="url(#paint5_linear_148_11895)" stroke-linejoin="round" d="M75.25 4.875h-4.0312L70 1.125l-1.2188 3.75H64.75l3.2812 2.25-1.2656 3.75L70 8.5313l3.2344 2.3437-1.2656-3.75z" />
                <path fill="url(#paint5_linear_148_11907)" d="M70 1.125v7.4063l-3.2344 2.3437 1.2656-3.75-3.2812-2.25h4.0312z" />
            </g>
            <defs>
                <linearGradient id="paint5_linear_148_11907" gradientUnits="userSpaceOnUse" x1="65.3913" x2="72.1004" y1="1.82167" y2="6.31832" />
            </defs>
        </symbol>
        <symbol id="chevron-down" viewBox="0 0 16 16" fill="none">
            <path stroke="var(--color2, #595959)" stroke-linecap="round" stroke-linejoin="round" d="M3.5 10.25 8 5.75l4.5 4.5" />
        </symbol>
    </defs>
</svg>